<svg width="103" height="57" viewBox="0 0 103 57" fill="none" xmlns="http://www.w3.org/2000/svg">
<path d="M27.488 34.456C27.7013 34.2 27.9573 34.0293 28.256 33.944C28.5547 33.8587 28.8747 33.9227 29.216 34.136C29.3867 34.264 29.5147 34.4987 29.6 34.84C29.728 35.1387 29.7707 35.4587 29.728 35.8C29.984 35.8 30.3253 35.8427 30.752 35.928C33.696 36.7813 35.872 37.976 37.28 39.512C38.688 41.0053 39.4987 43.1813 39.712 46.04C39.84 47.7893 39.6053 49.3467 39.008 50.712C38.4107 52.0773 37.5573 53.208 36.448 54.104C35.3813 55.0427 34.1013 55.7467 32.608 56.216C31.1573 56.728 29.6 56.984 27.936 56.984C26.528 56.984 25.0987 56.792 23.648 56.408C22.24 56.0667 20.96 55.4907 19.808 54.68C18.656 53.8693 17.7173 52.8027 16.992 51.48C16.2667 50.1573 15.9253 48.536 15.968 46.616C16.0107 43.544 16.8213 41.1333 18.4 39.384C20.0213 37.6347 22.4747 36.312 25.76 35.416C26.144 35.288 26.464 35.1813 26.72 35.096C27.0187 34.968 27.2747 34.7547 27.488 34.456ZM28.064 37.656L26.464 38.104C23.6907 38.872 21.7707 39.9387 20.704 41.304C19.68 42.6693 19.168 44.504 19.168 46.808C19.168 48.1733 19.424 49.3253 19.936 50.264C20.448 51.2027 21.1093 51.9707 21.92 52.568C22.7733 53.1653 23.712 53.592 24.736 53.848C25.76 54.1467 26.784 54.296 27.808 54.296C30.496 54.296 32.6507 53.592 34.272 52.184C35.8933 50.8187 36.6613 48.8773 36.576 46.36C36.5333 44.9947 36.2987 43.8427 35.872 42.904C35.488 41.9653 34.9547 41.1973 34.272 40.6C33.632 39.96 32.8427 39.448 31.904 39.064C30.9653 38.6373 29.9627 38.296 28.896 38.04L28.064 37.656ZM22.624 5.976C23.264 6.06133 23.6907 6.33866 23.904 6.808C24.1173 7.27733 24.16 7.78933 24.032 8.344C23.52 10.6053 22.7093 12.7173 21.6 14.68C20.5333 16.6427 19.2747 18.52 17.824 20.312C18.464 21.1227 19.1893 21.9333 20 22.744C20.8533 23.5547 21.728 24.3227 22.624 25.048C23.5627 25.7307 24.5227 26.3707 25.504 26.968C26.4853 27.5227 27.4667 27.9493 28.448 28.248C29.1733 28.504 29.6213 28.7813 29.792 29.08C29.9627 29.336 30.0267 29.5707 29.984 29.784C29.8987 30.3387 29.5147 30.68 28.832 30.808C28.192 30.8933 27.5733 30.8507 26.976 30.68C24.928 30.1253 22.9227 29.1013 20.96 27.608C19.04 26.072 17.3333 24.3653 15.84 22.488C13.7067 24.664 11.4667 26.5627 9.12 28.184C6.816 29.7627 4.64 31.0427 2.592 32.024C2.336 32.152 2.10133 32.2373 1.888 32.28C1.71733 32.3227 1.54667 32.3653 1.376 32.408C1.07733 32.4507 0.885334 32.408 0.8 32.28C0.714667 32.152 0.693334 31.9813 0.736 31.768C0.821334 31.512 0.949334 31.2773 1.12 31.064C1.33333 30.808 1.54667 30.616 1.76 30.488C3.296 29.464 4.98133 28.2693 6.816 26.904C8.65067 25.496 10.4427 23.896 12.192 22.104C13.984 20.312 15.6053 18.328 17.056 16.152C18.5067 13.976 19.5947 11.608 20.32 9.048L9.248 10.008C8.39467 10.008 7.49867 9.96533 6.56 9.88C5.664 9.79467 4.85333 9.45333 4.128 8.856C3.40267 8.25867 3.12533 7.78933 3.296 7.448C3.46667 7.064 3.89333 6.91467 4.576 7L8.544 7.384C10.1227 7.34133 11.3387 7.29867 12.192 7.256C13.088 7.17066 13.8773 7.10667 14.56 7.064C15.2427 6.97866 15.968 6.89333 16.736 6.808C17.504 6.72266 18.5707 6.63733 19.936 6.552L22.624 5.976ZM41.184 7.192C41.184 8.728 41.2053 10.4133 41.248 12.248C41.2907 14.04 41.312 15.896 41.312 17.816C41.312 19.736 41.2907 21.656 41.248 23.576C41.2053 25.4533 41.1413 27.2453 41.056 28.952C41.0133 29.5067 40.928 30.104 40.8 30.744C40.672 31.384 40.5227 31.9813 40.352 32.536C40.1813 33.0907 39.9893 33.56 39.776 33.944C39.5627 34.328 39.3493 34.5413 39.136 34.584C38.9227 34.6267 38.7307 34.4773 38.56 34.136C38.3893 33.7947 38.24 33.3467 38.112 32.792C38.0267 32.1947 37.9413 31.5333 37.856 30.808C37.8133 30.0827 37.792 29.3573 37.792 28.632L37.984 19.352C37.216 19.48 36.3627 19.608 35.424 19.736C34.4853 19.8213 33.5467 19.9067 32.608 19.992C31.6693 20.0773 30.752 20.1627 29.856 20.248C29.0027 20.2907 28.256 20.312 27.616 20.312C26.7627 20.312 26.08 20.2267 25.568 20.056C25.0987 19.8427 24.5653 19.544 23.968 19.16C23.1573 18.6907 22.8587 18.2427 23.072 17.816C23.328 17.3893 23.776 17.2187 24.416 17.304L26.912 17.688C27.3387 17.7307 27.9787 17.7307 28.832 17.688C29.6853 17.6453 30.6453 17.5813 31.712 17.496C32.7787 17.368 33.8667 17.24 34.976 17.112C36.0853 16.984 37.088 16.856 37.984 16.728C37.984 14.808 37.9413 12.9307 37.856 11.096C37.8133 9.26133 37.7493 7.64 37.664 6.232C37.664 5.592 37.5147 5.05866 37.216 4.632C36.9173 4.16266 36.5973 3.8 36.256 3.544C35.8293 3.24533 35.36 2.98933 34.848 2.776C34.4213 2.52 34.08 2.264 33.824 2.008C33.568 1.752 33.44 1.51733 33.44 1.304C33.44 0.919997 33.632 0.642663 34.016 0.471996C34.4427 0.301332 34.8693 0.258666 35.296 0.343998C36.3627 0.642663 37.2373 1.00533 37.92 1.432C38.6453 1.816 39.328 2.30667 39.968 2.904C40.608 3.416 40.9707 4.12 41.056 5.016C41.1413 5.912 41.184 6.63733 41.184 7.192Z" fill="#645847"/>
<path d="M89.238 56.024C88.0007 56.1093 86.8487 56.1733 85.782 56.216C84.758 56.2587 83.6913 56.3013 82.582 56.344C81.5153 56.3867 80.3847 56.408 79.19 56.408C77.9953 56.408 76.63 56.408 75.094 56.408C73.9847 56.408 72.9393 56.3867 71.958 56.344C71.0193 56.3013 70.3153 56.1947 69.846 56.024C69.5473 55.896 69.2487 55.6613 68.95 55.32C68.694 54.9787 68.5873 54.4027 68.63 53.592C68.6727 52.5253 68.694 51.5867 68.694 50.776C68.7367 49.9653 68.7367 49.1547 68.694 48.344C68.694 47.5333 68.6513 46.68 68.566 45.784C68.4807 44.8453 68.374 43.736 68.246 42.456C68.1607 41.432 67.9473 40.6853 67.606 40.216C67.2647 39.7467 66.9233 39.4267 66.582 39.256C66.0273 38.9147 65.7287 38.616 65.686 38.36C65.6433 38.104 65.6433 37.8693 65.686 37.656C65.7287 37.3147 65.942 37.1013 66.326 37.016C66.7527 36.9307 67.1153 36.9307 67.414 37.016C67.7553 37.1013 68.182 37.272 68.694 37.528C69.206 37.784 69.7607 38.2107 70.358 38.808C70.8273 39.2773 71.1047 39.9387 71.19 40.792C71.318 41.6453 71.4247 42.3493 71.51 42.904C71.638 44.2693 71.7447 45.784 71.83 47.448C71.9153 49.112 71.894 50.968 71.766 53.016C71.766 53.2293 71.8513 53.4 72.022 53.528C72.2353 53.6987 72.7473 53.8267 73.558 53.912C76.1607 53.912 78.6993 53.8693 81.174 53.784C83.6913 53.7413 86.1873 53.6773 88.662 53.592C88.7473 52.9093 88.854 51.9493 88.982 50.712C89.11 49.4747 89.2167 48.152 89.302 46.744C89.43 45.336 89.5153 43.9493 89.558 42.584C89.6433 41.2187 89.686 40.0453 89.686 39.064L77.27 39.64C76.374 39.64 75.478 39.5973 74.582 39.512C73.686 39.4267 72.8753 39.0853 72.15 38.488C71.382 37.8907 71.0833 37.4213 71.254 37.08C71.4673 36.696 71.894 36.5467 72.534 36.632L76.566 37.016C78.1447 36.9733 79.4033 36.952 80.342 36.952C81.3233 36.9093 82.2193 36.888 83.03 36.888C83.8407 36.8453 84.6727 36.8027 85.526 36.76C86.422 36.7173 87.5527 36.6533 88.918 36.568L91.606 35.992C92.246 36.0773 92.6513 36.3547 92.822 36.824C93.0353 37.2933 93.1207 37.8053 93.078 38.36C93.0353 39.128 92.9713 40.1733 92.886 41.496C92.8007 42.776 92.7153 44.1413 92.63 45.592C92.5447 47.0427 92.438 48.4507 92.31 49.816C92.182 51.1813 92.0753 52.2907 91.99 53.144C92.2033 53.1013 92.5447 53.08 93.014 53.08C93.3553 53.08 93.654 53.1227 93.91 53.208C94.2087 53.336 94.358 53.6133 94.358 54.04C94.358 54.552 93.8247 54.9787 92.758 55.32C91.734 55.704 90.5607 55.9387 89.238 56.024ZM93.142 7.192C93.142 9.112 93.142 11.096 93.142 13.144C93.1847 15.192 93.1847 17.304 93.142 19.48C93.9953 19.5227 94.806 19.5227 95.574 19.48C96.342 19.4373 97.046 19.3733 97.686 19.288C98.07 19.2027 98.518 19.096 99.03 18.968C99.5847 18.7973 100.097 18.7333 100.566 18.776C100.95 18.776 101.398 18.8827 101.91 19.096C102.465 19.2667 102.785 19.5867 102.87 20.056C102.955 20.4827 102.913 20.8027 102.742 21.016C102.614 21.2293 102.401 21.4 102.102 21.528C101.846 21.6133 101.569 21.6773 101.27 21.72C100.971 21.72 100.694 21.72 100.438 21.72C99.2433 21.848 98.0273 21.9333 96.79 21.976C95.5953 22.0187 94.358 22.0187 93.078 21.976C93.078 22.9147 93.0567 23.8533 93.014 24.792C92.9713 25.688 92.9287 26.5627 92.886 27.416C92.8433 27.9707 92.758 28.568 92.63 29.208C92.502 29.848 92.3527 30.4453 92.182 31C92.0113 31.5547 91.8193 32.024 91.606 32.408C91.3927 32.792 91.1793 33.0053 90.966 33.048C90.7527 33.0907 90.5607 32.9413 90.39 32.6C90.2193 32.2587 90.07 31.8107 89.942 31.256C89.8567 30.6587 89.7713 29.9973 89.686 29.272C89.6433 28.5467 89.622 27.8213 89.622 27.096C89.6647 25.816 89.7073 24.3013 89.75 22.552C89.7927 20.8027 89.814 18.9893 89.814 17.112C89.8567 15.192 89.8567 13.2933 89.814 11.416C89.814 9.496 89.75 7.768 89.622 6.232C89.622 5.592 89.4727 5.05866 89.174 4.632C88.8753 4.16266 88.5553 3.8 88.214 3.544C87.7873 3.24533 87.318 2.98933 86.806 2.776C85.8673 2.22133 85.398 1.73066 85.398 1.304C85.398 0.919997 85.59 0.642663 85.974 0.471996C86.358 0.301332 86.7847 0.258666 87.254 0.343998C88.3207 0.642663 89.1953 1.00533 89.878 1.432C90.6033 1.816 91.286 2.30667 91.926 2.904C92.566 3.416 92.9287 4.12 93.014 5.016C93.0993 5.912 93.142 6.63733 93.142 7.192ZM80.406 26.84C78.358 27.5227 76.0327 28.2267 73.43 28.952C70.8273 29.6773 67.9473 30.3173 64.79 30.872C64.2353 30.9573 63.6807 31.0427 63.126 31.128C62.5713 31.2133 62.0167 31.2347 61.462 31.192C61.206 31.192 60.9073 31.1707 60.566 31.128C60.2247 31.0427 59.9047 30.936 59.606 30.808C59.3073 30.68 59.03 30.5093 58.774 30.296C58.5607 30.0827 58.454 29.8053 58.454 29.464C58.6247 27.3307 58.7313 25.432 58.774 23.768C58.8167 22.104 58.7953 20.248 58.71 18.2C58.71 17.2187 58.4753 16.408 58.006 15.768C57.5793 15.0853 57.1953 14.6587 56.854 14.488C56.342 14.1467 56.0647 13.8693 56.022 13.656C55.9793 13.4 55.9793 13.1653 56.022 12.952C56.0647 12.568 56.278 12.3333 56.662 12.248C57.046 12.1627 57.4087 12.1627 57.75 12.248C58.0913 12.3333 58.4967 12.504 58.966 12.76C59.478 13.016 60.054 13.4427 60.694 14.04C61.1633 14.5093 61.4407 15.192 61.526 16.088C61.6113 16.984 61.6753 17.7093 61.718 18.264C61.846 19.5867 61.8673 21.144 61.782 22.936C61.7393 24.6853 61.6753 26.584 61.59 28.632L63.702 28.44C65.4513 28.184 67.0513 27.9067 68.502 27.608C69.9527 27.3093 71.2967 26.9893 72.534 26.648C73.7713 26.3067 74.966 25.9653 76.118 25.624C77.27 25.24 78.4433 24.856 79.638 24.472C80.2353 24.3013 80.8753 24.088 81.558 23.832C82.2407 23.576 82.8167 23.3627 83.286 23.192C83.4567 23.1493 83.6487 23.0853 83.862 23C84.118 22.9147 84.374 22.8507 84.63 22.808C84.886 22.7653 85.0993 22.7867 85.27 22.872C85.4833 22.9147 85.6113 23.0427 85.654 23.256C85.654 23.512 85.5047 23.8107 85.206 24.152C84.9073 24.4507 84.502 24.7707 83.99 25.112C83.478 25.4533 82.902 25.7733 82.262 26.072C81.622 26.3707 81.0033 26.6267 80.406 26.84ZM75.35 9.944C72.8753 10.072 70.3367 10.2213 67.734 10.392C65.1313 10.5627 62.2087 10.648 58.966 10.648C58.07 10.648 57.1527 10.6053 56.214 10.52C55.318 10.4347 54.5073 10.0933 53.782 9.496C53.0567 8.89867 52.7793 8.42933 52.95 8.088C53.1633 7.704 53.59 7.55466 54.23 7.64L58.262 8.024C61.2913 8.152 64.086 8.152 66.646 8.024C69.206 7.85333 71.8513 7.66133 74.582 7.448C75.1793 7.36267 75.6487 7.256 75.99 7.128C76.3313 6.95733 76.758 6.872 77.27 6.872C77.6113 6.872 77.91 6.97866 78.166 7.192C78.4647 7.36266 78.614 7.68266 78.614 8.152C78.614 8.62133 78.4007 9.02667 77.974 9.368C77.5473 9.66667 76.6727 9.85866 75.35 9.944Z" fill="#C9BBA6"/>
</svg>
